<svg xmlns="http://www.w3.org/2000/svg" xmlns:xlink="http://www.w3.org/1999/xlink" width="500" zoomAndPan="magnify" viewBox="0 0 375 299.999988" height="400" preserveAspectRatio="xMidYMid meet" version="1.0"><defs><g/></defs><rect x="-37.5" width="450" fill="#ffffff" y="-29.999999" height="359.999986" fill-opacity="1"/><rect x="-37.5" width="450" fill="#ffffff" y="-29.999999" height="359.999986" fill-opacity="1"/><rect x="-37.5" width="450" fill="#ffffff" y="-29.999999" height="359.999986" fill-opacity="1"/><rect x="-37.5" width="450" fill="#ffffff" y="-29.999999" height="359.999986" fill-opacity="1"/><g fill="#20243b" fill-opacity="0.302"><g transform="translate(18.709098, 186.748135)"><g><path d="M -6.726562 -21.800781 C -5.816406 -20.972656 -4.679688 -20.816406 -3.429688 -20.992188 C -2.496094 -21.121094 -1.445312 -21.589844 -0.289062 -22.386719 C 2.1875 -24.007812 5.046875 -27.433594 8.488281 -32.371094 C 16.554688 -44.003906 22.808594 -52.679688 27.367188 -58.726562 C 31.945312 -64.621094 34.421875 -67.355469 34.933594 -67.109375 C 35.292969 -66.84375 35.464844 -65.59375 35.460938 -63.367188 C 35.457031 -61.140625 35.363281 -58.421875 35.132812 -55.527344 C 34.472656 -47.796875 34.4375 -42.386719 35.234375 -38.996094 C 35.714844 -35.566406 37.359375 -32.933594 39.847656 -31.058594 C 42.71875 -28.757812 46.726562 -28.527344 51.585938 -30.164062 C 56.289062 -31.78125 62.199219 -35 69.472656 -39.839844 C 77.011719 -45.035156 83.996094 -49.675781 90.085938 -53.875 C 96.195312 -57.914062 99.789062 -60.648438 100.75 -61.738281 C 97.605469 -61.453125 94.375 -60.679688 91.054688 -59.417969 C 87.597656 -57.976562 84.164062 -56.382812 80.597656 -54.605469 C 74.085938 -51.144531 67.773438 -47.394531 61.617188 -43.664062 C 55.460938 -39.933594 50.488281 -37.964844 46.679688 -37.90625 C 45.054688 -38.152344 44.011719 -39.914062 43.527344 -43.347656 C 43.089844 -46.464844 43.097656 -50.921875 43.890625 -56.597656 C 44.207031 -58.871094 44.300781 -61.589844 44.375 -64.460938 C 44.292969 -67.3125 44.296875 -69.539062 44.03125 -71.414062 C 43.679688 -73.90625 43.105469 -75.734375 42.640625 -76.785156 C 42.039062 -77.652344 40.996094 -78.300781 39.324219 -78.863281 C 38.503906 -79.066406 37.699219 -79.109375 36.765625 -78.980469 C 34.582031 -78.671875 32.238281 -77.230469 29.851562 -74.984375 C 26.210938 -71.449219 20.40625 -64.109375 12.5625 -53.144531 C 6.578125 -44.828125 2.042969 -38.621094 -0.863281 -34.394531 C -0.945312 -38.359375 -1.050781 -41.367188 -1.023438 -43.441406 C -1.296875 -51.035156 -1.464844 -55.625 -1.707031 -57.339844 C -2.105469 -59.035156 -2.859375 -59.882812 -3.953125 -59.730469 C -4.886719 -59.597656 -5.757812 -57.882812 -6.457031 -54.921875 C -7.285156 -51.785156 -7.738281 -48.222656 -8.148438 -44.34375 C -8.714844 -39.335938 -8.835938 -34.546875 -8.511719 -29.980469 C -8.605469 -28.375 -8.410156 -26.972656 -8.253906 -25.878906 C -7.949219 -23.695312 -7.4375 -22.335938 -6.726562 -21.800781 Z M -6.726562 -21.800781 "/></g></g></g><g fill="#20243b" fill-opacity="0.302"><g transform="translate(120.710799, 172.394587)"><g><path d="M 10.636719 -58.917969 C 8.570312 -60.058594 6.742188 -60.597656 5.183594 -60.378906 L 4.871094 -60.335938 C 3.3125 -60.113281 1.816406 -59.425781 0.523438 -58.449219 C -2.066406 -56.496094 -4.1875 -53.492188 -5.6875 -49.464844 C -7.34375 -45.414062 -8.464844 -42.074219 -9.007812 -39.136719 C -9.480469 -36.839844 -9.460938 -34.457031 -9.15625 -32.273438 C -8.957031 -30.871094 -8.78125 -29.621094 -8.292969 -28.417969 C -7.144531 -24.761719 -5.542969 -22.441406 -3.296875 -21.167969 C -1.5625 -20.140625 0.242188 -19.757812 2.269531 -20.042969 C 3.050781 -20.152344 3.964844 -20.441406 4.855469 -20.882812 C 7.730469 -21.925781 10.429688 -24.214844 13 -27.4375 C 13.804688 -28.507812 14.742188 -29.75 15.457031 -31.441406 C 16.21875 -32.824219 16.84375 -34.023438 17.359375 -34.890625 C 18.382812 -34.398438 21.210938 -34.640625 25.558594 -35.410156 C 29.902344 -36.179688 34.539062 -37.148438 39.285156 -38.453125 C 41.738281 -39.117188 44.03125 -39.757812 46.464844 -40.578125 C 48.757812 -41.21875 50.71875 -41.972656 52.527344 -42.703125 C 56.449219 -44.210938 60.328125 -46.027344 64.1875 -48.003906 C 68.046875 -49.976562 71.28125 -51.863281 73.597656 -53.464844 C 74.757812 -54.261719 75.628906 -54.863281 76.320312 -55.597656 C 76.902344 -55.996094 77.148438 -56.507812 77.105469 -56.820312 L 77.082031 -56.976562 C 76.726562 -57.242188 74.074219 -56.871094 68.816406 -55.8125 C 63.578125 -54.597656 57.269531 -53.074219 50.226562 -51.128906 C 42.714844 -49.117188 36.117188 -47.394531 30.546875 -46.292969 C 24.707031 -44.832031 20.808594 -44.285156 18.871094 -44.488281 C 18.765625 -46.382812 18.433594 -48.722656 17.882812 -51.507812 C 17.175781 -54.273438 14.777344 -56.636719 10.636719 -58.917969 Z M 3.652344 -53.164062 L 4.121094 -53.230469 C 4.277344 -53.253906 4.410156 -53.429688 4.566406 -53.453125 L 5.503906 -53.582031 C 7.375 -53.847656 9.222656 -53.152344 10.691406 -51.769531 C 11.601562 -50.941406 12.222656 -49.917969 12.355469 -48.980469 C 12.484375 -48.042969 12.304688 -47.066406 11.8125 -46.042969 C 10.34375 -46.3125 8.785156 -47.207031 6.984375 -48.703125 C 5.207031 -50.042969 4.027344 -51.625 3.652344 -53.164062 Z M -0.25 -28.914062 C -1.273438 -29.40625 -1.804688 -30.921875 -2.136719 -33.261719 C -2.246094 -34.042969 -2.378906 -34.976562 -2.398438 -36.246094 C -2.476562 -40.210938 -1.78125 -43.175781 -0.460938 -45.109375 C 0.957031 -42.921875 2.625 -41.25 4.71875 -39.953125 C 6.652344 -38.632812 8.210938 -37.738281 9.210938 -37.402344 C 9.277344 -36.9375 9.054688 -36.269531 8.5625 -35.246094 C 7.914062 -34.199219 7.421875 -33.175781 6.882812 -32.464844 C 5.835938 -30.882812 4.71875 -29.773438 3.378906 -29.105469 C 2.800781 -28.707031 2.175781 -28.621094 1.707031 -28.554688 C 0.929688 -28.445312 0.28125 -28.511719 -0.25 -28.914062 Z M -0.25 -28.914062 "/></g></g></g><g fill="#20243b" fill-opacity="0.302"><g transform="translate(200.097444, 161.2234)"><g><path d="M 46.542969 -111.214844 C 49.808594 -117.398438 50.777344 -122.945312 49.453125 -127.847656 C 48.171875 -132.4375 45.8125 -134.492188 42.695312 -134.054688 L 42.382812 -134.011719 C 41.132812 -133.835938 39.929688 -133.347656 38.613281 -132.527344 C 37.140625 -131.683594 35.714844 -130.527344 34.328125 -129.058594 C 32.925781 -127.75 31.273438 -125.925781 29.507812 -123.769531 C 27.765625 -121.457031 26.042969 -118.988281 24.210938 -116.183594 C 20.503906 -110.890625 17.039062 -104.992188 13.503906 -98.453125 C 9.816406 -91.890625 6.882812 -85.589844 4.6875 -79.714844 C 3.75 -77.355469 2.941406 -75.175781 2.226562 -73.484375 L 0.078125 -68.410156 L -3.199219 -67.949219 L -6.320312 -67.507812 C -10.394531 -67.09375 -12.269531 -65.714844 -12.097656 -63.355469 L -12.007812 -62.730469 C -11.703125 -60.546875 -10.703125 -59.097656 -8.65625 -58.113281 C -8.300781 -57.84375 -7.339844 -57.820312 -5.9375 -58.019531 C -4.691406 -58.195312 -3.730469 -58.167969 -2.796875 -58.300781 C -2.664062 -57.367188 -3.089844 -55.875 -3.71875 -53.558594 C -4.503906 -51.222656 -5.222656 -48.414062 -5.917969 -45.453125 C -6.4375 -43.472656 -6.753906 -41.203125 -6.914062 -38.953125 C -7.1875 -36.367188 -7.167969 -33.984375 -6.972656 -31.46875 C -6.917969 -26.542969 -6.4375 -22 -5.53125 -17.832031 C -4.761719 -13.488281 -3.742188 -10.765625 -2.472656 -9.671875 C -0.1875 -6.972656 2.820312 -5.964844 6.382812 -6.625 L 7.632812 -6.800781 C 11.644531 -7.683594 16.082031 -10.058594 20.679688 -13.566406 C 23.847656 -15.921875 27.28125 -18.632812 31.277344 -21.898438 C 35.136719 -24.988281 41.230469 -30.296875 49.554688 -37.832031 C 55.066406 -42.742188 60.242188 -46.652344 64.882812 -49.851562 C 69.523438 -53.046875 72.710938 -55.246094 74.5625 -56.78125 C 75.011719 -57.003906 75.121094 -57.335938 75.078125 -57.648438 L 75.054688 -57.804688 C 74.855469 -58.09375 74.367188 -58.183594 73.722656 -58.253906 C 71.046875 -58.035156 66.789062 -56.640625 60.8125 -53.890625 C 54.839844 -51.140625 46.832031 -45.878906 36.945312 -38.125 C 32.507812 -34.636719 28.757812 -31.882812 25.589844 -29.527344 C 22.421875 -27.175781 19.675781 -25.195312 17.648438 -23.796875 C 12.5625 -20.378906 9.574219 -19.003906 8.550781 -19.496094 C 7.527344 -19.988281 6.59375 -20.96875 5.75 -22.441406 C 5.148438 -23.3125 4.84375 -25.496094 4.828125 -28.992188 C 4.65625 -32.46875 4.933594 -36.164062 5.496094 -40.0625 C 5.679688 -42.15625 6.019531 -44.269531 6.355469 -46.386719 C 6.71875 -48.347656 7.253906 -50.171875 7.816406 -51.839844 C 9.050781 -55.515625 9.921875 -58.339844 10.597656 -60.34375 C 13.335938 -61.207031 16.078125 -62.070312 19.15625 -62.820312 C 21.917969 -63.527344 24.660156 -64.390625 27.246094 -65.234375 C 31.527344 -66.472656 35.023438 -67.601562 37.566406 -68.753906 C 39.976562 -69.726562 41.269531 -70.707031 41.160156 -71.484375 C 41.339844 -72.464844 39.671875 -73.027344 36.507812 -72.898438 C 33.1875 -72.75 29.734375 -72.421875 26.144531 -71.917969 C 23.941406 -71.765625 21.445312 -71.414062 18.949219 -71.0625 L 13.023438 -70.230469 C 12.914062 -71.011719 13.671875 -72.390625 15.480469 -74.234375 C 17.289062 -76.078125 19.945312 -78.679688 23.628906 -81.902344 C 25.902344 -83.8125 28.382812 -86.546875 31.398438 -89.996094 C 34.433594 -93.285156 37.113281 -96.84375 39.792969 -100.402344 C 41.132812 -102.179688 42.453125 -104.117188 43.613281 -106.03125 C 44.800781 -107.785156 45.828125 -109.523438 46.542969 -111.214844 Z M 35.578125 -119.054688 C 36.671875 -120.324219 37.632812 -121.414062 38.613281 -122.347656 C 39.308594 -123.078125 39.886719 -123.480469 40.355469 -123.546875 L 40.511719 -123.566406 C 40.511719 -123.566406 40.6875 -123.433594 40.6875 -123.433594 L 40.710938 -123.277344 C 40.734375 -123.121094 40.910156 -122.988281 40.910156 -122.988281 C 41.085938 -121.738281 40.28125 -119.558594 38.667969 -116.308594 C 36.8125 -112.546875 34.21875 -108.367188 30.933594 -103.449219 C 28.03125 -99.222656 25.195312 -95.644531 22.15625 -92.351562 C 19.96875 -89.816406 18.386719 -88.640625 17.761719 -88.554688 C 17.449219 -88.507812 17.425781 -88.664062 17.382812 -88.976562 C 17.316406 -89.445312 18.144531 -91.46875 20.179688 -95.097656 C 22.238281 -98.566406 24.429688 -102.214844 26.886719 -106.222656 C 28.449219 -108.667969 30.171875 -111.136719 31.734375 -113.582031 C 33.320312 -115.875 34.507812 -117.632812 35.578125 -119.054688 Z M 35.578125 -119.054688 "/></g></g></g><g fill="#20243b" fill-opacity="0.302"><g transform="translate(276.832668, 150.425318)"><g><path d="M 27.179688 -55.519531 C 29.105469 -58.8125 29.355469 -61.554688 27.753906 -63.871094 C 26.199219 -65.882812 23.507812 -66.933594 20.03125 -66.761719 L 18.941406 -66.609375 L 17.378906 -66.390625 C 16.464844 -66.101562 15.550781 -65.8125 14.640625 -65.527344 C 10.113281 -63.777344 5.742188 -60.933594 1.855469 -56.886719 C -2.183594 -52.820312 -5.222656 -48.414062 -7.304688 -43.988281 C -8.554688 -41.585938 -9.339844 -39.246094 -9.65625 -36.976562 C -10.015625 -35.015625 -10.109375 -33.414062 -9.890625 -31.851562 L -9.738281 -30.761719 C -9.050781 -28.152344 -7.765625 -25.789062 -5.585938 -23.867188 C -3.695312 -21.75 -1.25 -20.183594 1.734375 -19.332031 C 4.917969 -18.1875 9.414062 -17.867188 15.074219 -18.347656 L 16.945312 -18.609375 C 21.9375 -19.3125 27.441406 -20.882812 33.128906 -23.429688 C 36.117188 -24.804688 39.394531 -26.382812 42.761719 -28.445312 C 45.972656 -30.488281 49.34375 -32.550781 52.511719 -34.90625 C 58.308594 -38.90625 63.285156 -43.105469 67.460938 -47.351562 C 71.65625 -51.441406 73.644531 -54.265625 73.558594 -56.003906 L 73.515625 -56.316406 C 73.472656 -56.625 73.25 -57.074219 73.207031 -57.382812 C 73.007812 -57.675781 72.808594 -57.964844 72.808594 -57.964844 C 72.496094 -57.921875 70.132812 -56.632812 65.714844 -54.101562 C 61.144531 -51.550781 55.859375 -48.421875 49.878906 -44.558594 C 37.5 -36.453125 27.710938 -31.417969 20.3125 -29.738281 C 12.933594 -27.90625 6.742188 -27.832031 1.867188 -29.691406 C -0.179688 -30.675781 -1.335938 -32.101562 -1.753906 -33.953125 C -2.308594 -35.625 -1.992188 -37.894531 -0.804688 -40.765625 C -0.355469 -42.101562 0.445312 -43.167969 1.605469 -43.96875 C 2.632812 -44.589844 4.460938 -45.164062 7.089844 -45.695312 C 11.726562 -46.664062 15.984375 -48.058594 19.863281 -49.878906 C 23.585938 -51.675781 26.039062 -53.453125 27.179688 -55.519531 Z M 12.527344 -56.800781 C 14.132812 -57.820312 15.46875 -58.484375 16.695312 -58.816406 C 17.632812 -58.949219 18.234375 -59.191406 18.859375 -59.28125 L 19.324219 -59.347656 C 19.816406 -59.257812 20.148438 -59.144531 20.195312 -58.832031 C 20.238281 -58.519531 20.125 -58.1875 19.878906 -57.675781 C 19.097656 -56.449219 18.425781 -55.5625 17.558594 -54.960938 C 14.945312 -53.164062 12.71875 -52.054688 11.179688 -51.679688 C 9.796875 -51.324219 8.863281 -51.191406 8.238281 -51.105469 L 7.769531 -51.039062 C 7.300781 -50.972656 7.125 -51.109375 7.078125 -51.417969 C 7.035156 -51.730469 7.304688 -52.085938 7.996094 -52.820312 C 9.089844 -54.089844 10.652344 -55.421875 12.527344 -56.800781 Z M 12.527344 -56.800781 "/></g></g></g><g fill="#20243b" fill-opacity="0.502"><g transform="translate(22.604139, 183.239798)"><g><path d="M -6.726562 -21.800781 C -5.816406 -20.972656 -4.679688 -20.816406 -3.429688 -20.992188 C -2.496094 -21.121094 -1.445312 -21.589844 -0.289062 -22.386719 C 2.1875 -24.007812 5.046875 -27.433594 8.488281 -32.371094 C 16.554688 -44.003906 22.808594 -52.679688 27.367188 -58.726562 C 31.945312 -64.621094 34.421875 -67.355469 34.933594 -67.109375 C 35.292969 -66.84375 35.464844 -65.59375 35.460938 -63.367188 C 35.457031 -61.140625 35.363281 -58.421875 35.132812 -55.527344 C 34.472656 -47.796875 34.4375 -42.386719 35.234375 -38.996094 C 35.714844 -35.566406 37.359375 -32.933594 39.847656 -31.058594 C 42.71875 -28.757812 46.726562 -28.527344 51.585938 -30.164062 C 56.289062 -31.78125 62.199219 -35 69.472656 -39.839844 C 77.011719 -45.035156 83.996094 -49.675781 90.085938 -53.875 C 96.195312 -57.914062 99.789062 -60.648438 100.75 -61.738281 C 97.605469 -61.453125 94.375 -60.679688 91.054688 -59.417969 C 87.597656 -57.976562 84.164062 -56.382812 80.597656 -54.605469 C 74.085938 -51.144531 67.773438 -47.394531 61.617188 -43.664062 C 55.460938 -39.933594 50.488281 -37.964844 46.679688 -37.90625 C 45.054688 -38.152344 44.011719 -39.914062 43.527344 -43.347656 C 43.089844 -46.464844 43.097656 -50.921875 43.890625 -56.597656 C 44.207031 -58.871094 44.300781 -61.589844 44.375 -64.460938 C 44.292969 -67.3125 44.296875 -69.539062 44.03125 -71.414062 C 43.679688 -73.90625 43.105469 -75.734375 42.640625 -76.785156 C 42.039062 -77.652344 40.996094 -78.300781 39.324219 -78.863281 C 38.503906 -79.066406 37.699219 -79.109375 36.765625 -78.980469 C 34.582031 -78.671875 32.238281 -77.230469 29.851562 -74.984375 C 26.210938 -71.449219 20.40625 -64.109375 12.5625 -53.144531 C 6.578125 -44.828125 2.042969 -38.621094 -0.863281 -34.394531 C -0.945312 -38.359375 -1.050781 -41.367188 -1.023438 -43.441406 C -1.296875 -51.035156 -1.464844 -55.625 -1.707031 -57.339844 C -2.105469 -59.035156 -2.859375 -59.882812 -3.953125 -59.730469 C -4.886719 -59.597656 -5.757812 -57.882812 -6.457031 -54.921875 C -7.285156 -51.785156 -7.738281 -48.222656 -8.148438 -44.34375 C -8.714844 -39.335938 -8.835938 -34.546875 -8.511719 -29.980469 C -8.605469 -28.375 -8.410156 -26.972656 -8.253906 -25.878906 C -7.949219 -23.695312 -7.4375 -22.335938 -6.726562 -21.800781 Z M -6.726562 -21.800781 "/></g></g></g><g fill="#20243b" fill-opacity="0.502"><g transform="translate(124.60584, 168.88625)"><g><path d="M 10.636719 -58.917969 C 8.570312 -60.058594 6.742188 -60.597656 5.183594 -60.378906 L 4.871094 -60.335938 C 3.3125 -60.113281 1.816406 -59.425781 0.523438 -58.449219 C -2.066406 -56.496094 -4.1875 -53.492188 -5.6875 -49.464844 C -7.34375 -45.414062 -8.464844 -42.074219 -9.007812 -39.136719 C -9.480469 -36.839844 -9.460938 -34.457031 -9.15625 -32.273438 C -8.957031 -30.871094 -8.78125 -29.621094 -8.292969 -28.417969 C -7.144531 -24.761719 -5.542969 -22.441406 -3.296875 -21.167969 C -1.5625 -20.140625 0.242188 -19.757812 2.269531 -20.042969 C 3.050781 -20.152344 3.964844 -20.441406 4.855469 -20.882812 C 7.730469 -21.925781 10.429688 -24.214844 13 -27.4375 C 13.804688 -28.507812 14.742188 -29.75 15.457031 -31.441406 C 16.21875 -32.824219 16.84375 -34.023438 17.359375 -34.890625 C 18.382812 -34.398438 21.210938 -34.640625 25.558594 -35.410156 C 29.902344 -36.179688 34.539062 -37.148438 39.285156 -38.453125 C 41.738281 -39.117188 44.03125 -39.757812 46.464844 -40.578125 C 48.757812 -41.21875 50.71875 -41.972656 52.527344 -42.703125 C 56.449219 -44.210938 60.328125 -46.027344 64.1875 -48.003906 C 68.046875 -49.976562 71.28125 -51.863281 73.597656 -53.464844 C 74.757812 -54.261719 75.628906 -54.863281 76.320312 -55.597656 C 76.902344 -55.996094 77.148438 -56.507812 77.105469 -56.820312 L 77.082031 -56.976562 C 76.726562 -57.242188 74.074219 -56.871094 68.816406 -55.8125 C 63.578125 -54.597656 57.269531 -53.074219 50.226562 -51.128906 C 42.714844 -49.117188 36.117188 -47.394531 30.546875 -46.292969 C 24.707031 -44.832031 20.808594 -44.285156 18.871094 -44.488281 C 18.765625 -46.382812 18.433594 -48.722656 17.882812 -51.507812 C 17.175781 -54.273438 14.777344 -56.636719 10.636719 -58.917969 Z M 3.652344 -53.164062 L 4.121094 -53.230469 C 4.277344 -53.253906 4.410156 -53.429688 4.566406 -53.453125 L 5.503906 -53.582031 C 7.375 -53.847656 9.222656 -53.152344 10.691406 -51.769531 C 11.601562 -50.941406 12.222656 -49.917969 12.355469 -48.980469 C 12.484375 -48.042969 12.304688 -47.066406 11.8125 -46.042969 C 10.34375 -46.3125 8.785156 -47.207031 6.984375 -48.703125 C 5.207031 -50.042969 4.027344 -51.625 3.652344 -53.164062 Z M -0.25 -28.914062 C -1.273438 -29.40625 -1.804688 -30.921875 -2.136719 -33.261719 C -2.246094 -34.042969 -2.378906 -34.976562 -2.398438 -36.246094 C -2.476562 -40.210938 -1.78125 -43.175781 -0.460938 -45.109375 C 0.957031 -42.921875 2.625 -41.25 4.71875 -39.953125 C 6.652344 -38.632812 8.210938 -37.738281 9.210938 -37.402344 C 9.277344 -36.9375 9.054688 -36.269531 8.5625 -35.246094 C 7.914062 -34.199219 7.421875 -33.175781 6.882812 -32.464844 C 5.835938 -30.882812 4.71875 -29.773438 3.378906 -29.105469 C 2.800781 -28.707031 2.175781 -28.621094 1.707031 -28.554688 C 0.929688 -28.445312 0.28125 -28.511719 -0.25 -28.914062 Z M -0.25 -28.914062 "/></g></g></g><g fill="#20243b" fill-opacity="0.502"><g transform="translate(203.992485, 157.715064)"><g><path d="M 46.542969 -111.214844 C 49.808594 -117.398438 50.777344 -122.945312 49.453125 -127.847656 C 48.171875 -132.4375 45.8125 -134.492188 42.695312 -134.054688 L 42.382812 -134.011719 C 41.132812 -133.835938 39.929688 -133.347656 38.613281 -132.527344 C 37.140625 -131.683594 35.714844 -130.527344 34.328125 -129.058594 C 32.925781 -127.75 31.273438 -125.925781 29.507812 -123.769531 C 27.765625 -121.457031 26.042969 -118.988281 24.210938 -116.183594 C 20.503906 -110.890625 17.039062 -104.992188 13.503906 -98.453125 C 9.816406 -91.890625 6.882812 -85.589844 4.6875 -79.714844 C 3.75 -77.355469 2.941406 -75.175781 2.226562 -73.484375 L 0.078125 -68.410156 L -3.199219 -67.949219 L -6.320312 -67.507812 C -10.394531 -67.09375 -12.269531 -65.714844 -12.097656 -63.355469 L -12.007812 -62.730469 C -11.703125 -60.546875 -10.703125 -59.097656 -8.65625 -58.113281 C -8.300781 -57.84375 -7.339844 -57.820312 -5.9375 -58.019531 C -4.691406 -58.195312 -3.730469 -58.167969 -2.796875 -58.300781 C -2.664062 -57.367188 -3.089844 -55.875 -3.71875 -53.558594 C -4.503906 -51.222656 -5.222656 -48.414062 -5.917969 -45.453125 C -6.4375 -43.472656 -6.753906 -41.203125 -6.914062 -38.953125 C -7.1875 -36.367188 -7.167969 -33.984375 -6.972656 -31.46875 C -6.917969 -26.542969 -6.4375 -22 -5.53125 -17.832031 C -4.761719 -13.488281 -3.742188 -10.765625 -2.472656 -9.671875 C -0.1875 -6.972656 2.820312 -5.964844 6.382812 -6.625 L 7.632812 -6.800781 C 11.644531 -7.683594 16.082031 -10.058594 20.679688 -13.566406 C 23.847656 -15.921875 27.28125 -18.632812 31.277344 -21.898438 C 35.136719 -24.988281 41.230469 -30.296875 49.554688 -37.832031 C 55.066406 -42.742188 60.242188 -46.652344 64.882812 -49.851562 C 69.523438 -53.046875 72.710938 -55.246094 74.5625 -56.78125 C 75.011719 -57.003906 75.121094 -57.335938 75.078125 -57.648438 L 75.054688 -57.804688 C 74.855469 -58.09375 74.367188 -58.183594 73.722656 -58.253906 C 71.046875 -58.035156 66.789062 -56.640625 60.8125 -53.890625 C 54.839844 -51.140625 46.832031 -45.878906 36.945312 -38.125 C 32.507812 -34.636719 28.757812 -31.882812 25.589844 -29.527344 C 22.421875 -27.175781 19.675781 -25.195312 17.648438 -23.796875 C 12.5625 -20.378906 9.574219 -19.003906 8.550781 -19.496094 C 7.527344 -19.988281 6.59375 -20.96875 5.75 -22.441406 C 5.148438 -23.3125 4.84375 -25.496094 4.828125 -28.992188 C 4.65625 -32.46875 4.933594 -36.164062 5.496094 -40.0625 C 5.679688 -42.15625 6.019531 -44.269531 6.355469 -46.386719 C 6.71875 -48.347656 7.253906 -50.171875 7.816406 -51.839844 C 9.050781 -55.515625 9.921875 -58.339844 10.597656 -60.34375 C 13.335938 -61.207031 16.078125 -62.070312 19.15625 -62.820312 C 21.917969 -63.527344 24.660156 -64.390625 27.246094 -65.234375 C 31.527344 -66.472656 35.023438 -67.601562 37.566406 -68.753906 C 39.976562 -69.726562 41.269531 -70.707031 41.160156 -71.484375 C 41.339844 -72.464844 39.671875 -73.027344 36.507812 -72.898438 C 33.1875 -72.75 29.734375 -72.421875 26.144531 -71.917969 C 23.941406 -71.765625 21.445312 -71.414062 18.949219 -71.0625 L 13.023438 -70.230469 C 12.914062 -71.011719 13.671875 -72.390625 15.480469 -74.234375 C 17.289062 -76.078125 19.945312 -78.679688 23.628906 -81.902344 C 25.902344 -83.8125 28.382812 -86.546875 31.398438 -89.996094 C 34.433594 -93.285156 37.113281 -96.84375 39.792969 -100.402344 C 41.132812 -102.179688 42.453125 -104.117188 43.613281 -106.03125 C 44.800781 -107.785156 45.828125 -109.523438 46.542969 -111.214844 Z M 35.578125 -119.054688 C 36.671875 -120.324219 37.632812 -121.414062 38.613281 -122.347656 C 39.308594 -123.078125 39.886719 -123.480469 40.355469 -123.546875 L 40.511719 -123.566406 C 40.511719 -123.566406 40.6875 -123.433594 40.6875 -123.433594 L 40.710938 -123.277344 C 40.734375 -123.121094 40.910156 -122.988281 40.910156 -122.988281 C 41.085938 -121.738281 40.28125 -119.558594 38.667969 -116.308594 C 36.8125 -112.546875 34.21875 -108.367188 30.933594 -103.449219 C 28.03125 -99.222656 25.195312 -95.644531 22.15625 -92.351562 C 19.96875 -89.816406 18.386719 -88.640625 17.761719 -88.554688 C 17.449219 -88.507812 17.425781 -88.664062 17.382812 -88.976562 C 17.316406 -89.445312 18.144531 -91.46875 20.179688 -95.097656 C 22.238281 -98.566406 24.429688 -102.214844 26.886719 -106.222656 C 28.449219 -108.667969 30.171875 -111.136719 31.734375 -113.582031 C 33.320312 -115.875 34.507812 -117.632812 35.578125 -119.054688 Z M 35.578125 -119.054688 "/></g></g></g><g fill="#20243b" fill-opacity="0.502"><g transform="translate(280.72771, 146.916982)"><g><path d="M 27.179688 -55.519531 C 29.105469 -58.8125 29.355469 -61.554688 27.753906 -63.871094 C 26.199219 -65.882812 23.507812 -66.933594 20.03125 -66.761719 L 18.941406 -66.609375 L 17.378906 -66.390625 C 16.464844 -66.101562 15.550781 -65.8125 14.640625 -65.527344 C 10.113281 -63.777344 5.742188 -60.933594 1.855469 -56.886719 C -2.183594 -52.820312 -5.222656 -48.414062 -7.304688 -43.988281 C -8.554688 -41.585938 -9.339844 -39.246094 -9.65625 -36.976562 C -10.015625 -35.015625 -10.109375 -33.414062 -9.890625 -31.851562 L -9.738281 -30.761719 C -9.050781 -28.152344 -7.765625 -25.789062 -5.585938 -23.867188 C -3.695312 -21.75 -1.25 -20.183594 1.734375 -19.332031 C 4.917969 -18.1875 9.414062 -17.867188 15.074219 -18.347656 L 16.945312 -18.609375 C 21.9375 -19.3125 27.441406 -20.882812 33.128906 -23.429688 C 36.117188 -24.804688 39.394531 -26.382812 42.761719 -28.445312 C 45.972656 -30.488281 49.34375 -32.550781 52.511719 -34.90625 C 58.308594 -38.90625 63.285156 -43.105469 67.460938 -47.351562 C 71.65625 -51.441406 73.644531 -54.265625 73.558594 -56.003906 L 73.515625 -56.316406 C 73.472656 -56.625 73.25 -57.074219 73.207031 -57.382812 C 73.007812 -57.675781 72.808594 -57.964844 72.808594 -57.964844 C 72.496094 -57.921875 70.132812 -56.632812 65.714844 -54.101562 C 61.144531 -51.550781 55.859375 -48.421875 49.878906 -44.558594 C 37.5 -36.453125 27.710938 -31.417969 20.3125 -29.738281 C 12.933594 -27.90625 6.742188 -27.832031 1.867188 -29.691406 C -0.179688 -30.675781 -1.335938 -32.101562 -1.753906 -33.953125 C -2.308594 -35.625 -1.992188 -37.894531 -0.804688 -40.765625 C -0.355469 -42.101562 0.445312 -43.167969 1.605469 -43.96875 C 2.632812 -44.589844 4.460938 -45.164062 7.089844 -45.695312 C 11.726562 -46.664062 15.984375 -48.058594 19.863281 -49.878906 C 23.585938 -51.675781 26.039062 -53.453125 27.179688 -55.519531 Z M 12.527344 -56.800781 C 14.132812 -57.820312 15.46875 -58.484375 16.695312 -58.816406 C 17.632812 -58.949219 18.234375 -59.191406 18.859375 -59.28125 L 19.324219 -59.347656 C 19.816406 -59.257812 20.148438 -59.144531 20.195312 -58.832031 C 20.238281 -58.519531 20.125 -58.1875 19.878906 -57.675781 C 19.097656 -56.449219 18.425781 -55.5625 17.558594 -54.960938 C 14.945312 -53.164062 12.71875 -52.054688 11.179688 -51.679688 C 9.796875 -51.324219 8.863281 -51.191406 8.238281 -51.105469 L 7.769531 -51.039062 C 7.300781 -50.972656 7.125 -51.109375 7.078125 -51.417969 C 7.035156 -51.730469 7.304688 -52.085938 7.996094 -52.820312 C 9.089844 -54.089844 10.652344 -55.421875 12.527344 -56.800781 Z M 12.527344 -56.800781 "/></g></g></g><g fill="#20243b" fill-opacity="1"><g transform="translate(26.499174, 179.731462)"><g><path d="M -6.726562 -21.800781 C -5.816406 -20.972656 -4.679688 -20.816406 -3.429688 -20.992188 C -2.496094 -21.121094 -1.445312 -21.589844 -0.289062 -22.386719 C 2.1875 -24.007812 5.046875 -27.433594 8.488281 -32.371094 C 16.554688 -44.003906 22.808594 -52.679688 27.367188 -58.726562 C 31.945312 -64.621094 34.421875 -67.355469 34.933594 -67.109375 C 35.292969 -66.84375 35.464844 -65.59375 35.460938 -63.367188 C 35.457031 -61.140625 35.363281 -58.421875 35.132812 -55.527344 C 34.472656 -47.796875 34.4375 -42.386719 35.234375 -38.996094 C 35.714844 -35.566406 37.359375 -32.933594 39.847656 -31.058594 C 42.71875 -28.757812 46.726562 -28.527344 51.585938 -30.164062 C 56.289062 -31.78125 62.199219 -35 69.472656 -39.839844 C 77.011719 -45.035156 83.996094 -49.675781 90.085938 -53.875 C 96.195312 -57.914062 99.789062 -60.648438 100.75 -61.738281 C 97.605469 -61.453125 94.375 -60.679688 91.054688 -59.417969 C 87.597656 -57.976562 84.164062 -56.382812 80.597656 -54.605469 C 74.085938 -51.144531 67.773438 -47.394531 61.617188 -43.664062 C 55.460938 -39.933594 50.488281 -37.964844 46.679688 -37.90625 C 45.054688 -38.152344 44.011719 -39.914062 43.527344 -43.347656 C 43.089844 -46.464844 43.097656 -50.921875 43.890625 -56.597656 C 44.207031 -58.871094 44.300781 -61.589844 44.375 -64.460938 C 44.292969 -67.3125 44.296875 -69.539062 44.03125 -71.414062 C 43.679688 -73.90625 43.105469 -75.734375 42.640625 -76.785156 C 42.039062 -77.652344 40.996094 -78.300781 39.324219 -78.863281 C 38.503906 -79.066406 37.699219 -79.109375 36.765625 -78.980469 C 34.582031 -78.671875 32.238281 -77.230469 29.851562 -74.984375 C 26.210938 -71.449219 20.40625 -64.109375 12.5625 -53.144531 C 6.578125 -44.828125 2.042969 -38.621094 -0.863281 -34.394531 C -0.945312 -38.359375 -1.050781 -41.367188 -1.023438 -43.441406 C -1.296875 -51.035156 -1.464844 -55.625 -1.707031 -57.339844 C -2.105469 -59.035156 -2.859375 -59.882812 -3.953125 -59.730469 C -4.886719 -59.597656 -5.757812 -57.882812 -6.457031 -54.921875 C -7.285156 -51.785156 -7.738281 -48.222656 -8.148438 -44.34375 C -8.714844 -39.335938 -8.835938 -34.546875 -8.511719 -29.980469 C -8.605469 -28.375 -8.410156 -26.972656 -8.253906 -25.878906 C -7.949219 -23.695312 -7.4375 -22.335938 -6.726562 -21.800781 Z M -6.726562 -21.800781 "/></g></g></g><g fill="#20243b" fill-opacity="1"><g transform="translate(128.500874, 165.377914)"><g><path d="M 10.636719 -58.917969 C 8.570312 -60.058594 6.742188 -60.597656 5.183594 -60.378906 L 4.871094 -60.335938 C 3.3125 -60.113281 1.816406 -59.425781 0.523438 -58.449219 C -2.066406 -56.496094 -4.1875 -53.492188 -5.6875 -49.464844 C -7.34375 -45.414062 -8.464844 -42.074219 -9.007812 -39.136719 C -9.480469 -36.839844 -9.460938 -34.457031 -9.15625 -32.273438 C -8.957031 -30.871094 -8.78125 -29.621094 -8.292969 -28.417969 C -7.144531 -24.761719 -5.542969 -22.441406 -3.296875 -21.167969 C -1.5625 -20.140625 0.242188 -19.757812 2.269531 -20.042969 C 3.050781 -20.152344 3.964844 -20.441406 4.855469 -20.882812 C 7.730469 -21.925781 10.429688 -24.214844 13 -27.4375 C 13.804688 -28.507812 14.742188 -29.75 15.457031 -31.441406 C 16.21875 -32.824219 16.84375 -34.023438 17.359375 -34.890625 C 18.382812 -34.398438 21.210938 -34.640625 25.558594 -35.410156 C 29.902344 -36.179688 34.539062 -37.148438 39.285156 -38.453125 C 41.738281 -39.117188 44.03125 -39.757812 46.464844 -40.578125 C 48.757812 -41.21875 50.71875 -41.972656 52.527344 -42.703125 C 56.449219 -44.210938 60.328125 -46.027344 64.1875 -48.003906 C 68.046875 -49.976562 71.28125 -51.863281 73.597656 -53.464844 C 74.757812 -54.261719 75.628906 -54.863281 76.320312 -55.597656 C 76.902344 -55.996094 77.148438 -56.507812 77.105469 -56.820312 L 77.082031 -56.976562 C 76.726562 -57.242188 74.074219 -56.871094 68.816406 -55.8125 C 63.578125 -54.597656 57.269531 -53.074219 50.226562 -51.128906 C 42.714844 -49.117188 36.117188 -47.394531 30.546875 -46.292969 C 24.707031 -44.832031 20.808594 -44.285156 18.871094 -44.488281 C 18.765625 -46.382812 18.433594 -48.722656 17.882812 -51.507812 C 17.175781 -54.273438 14.777344 -56.636719 10.636719 -58.917969 Z M 3.652344 -53.164062 L 4.121094 -53.230469 C 4.277344 -53.253906 4.410156 -53.429688 4.566406 -53.453125 L 5.503906 -53.582031 C 7.375 -53.847656 9.222656 -53.152344 10.691406 -51.769531 C 11.601562 -50.941406 12.222656 -49.917969 12.355469 -48.980469 C 12.484375 -48.042969 12.304688 -47.066406 11.8125 -46.042969 C 10.34375 -46.3125 8.785156 -47.207031 6.984375 -48.703125 C 5.207031 -50.042969 4.027344 -51.625 3.652344 -53.164062 Z M -0.25 -28.914062 C -1.273438 -29.40625 -1.804688 -30.921875 -2.136719 -33.261719 C -2.246094 -34.042969 -2.378906 -34.976562 -2.398438 -36.246094 C -2.476562 -40.210938 -1.78125 -43.175781 -0.460938 -45.109375 C 0.957031 -42.921875 2.625 -41.25 4.71875 -39.953125 C 6.652344 -38.632812 8.210938 -37.738281 9.210938 -37.402344 C 9.277344 -36.9375 9.054688 -36.269531 8.5625 -35.246094 C 7.914062 -34.199219 7.421875 -33.175781 6.882812 -32.464844 C 5.835938 -30.882812 4.71875 -29.773438 3.378906 -29.105469 C 2.800781 -28.707031 2.175781 -28.621094 1.707031 -28.554688 C 0.929688 -28.445312 0.28125 -28.511719 -0.25 -28.914062 Z M -0.25 -28.914062 "/></g></g></g><g fill="#20243b" fill-opacity="1"><g transform="translate(207.887519, 154.206727)"><g><path d="M 46.542969 -111.214844 C 49.808594 -117.398438 50.777344 -122.945312 49.453125 -127.847656 C 48.171875 -132.4375 45.8125 -134.492188 42.695312 -134.054688 L 42.382812 -134.011719 C 41.132812 -133.835938 39.929688 -133.347656 38.613281 -132.527344 C 37.140625 -131.683594 35.714844 -130.527344 34.328125 -129.058594 C 32.925781 -127.75 31.273438 -125.925781 29.507812 -123.769531 C 27.765625 -121.457031 26.042969 -118.988281 24.210938 -116.183594 C 20.503906 -110.890625 17.039062 -104.992188 13.503906 -98.453125 C 9.816406 -91.890625 6.882812 -85.589844 4.6875 -79.714844 C 3.75 -77.355469 2.941406 -75.175781 2.226562 -73.484375 L 0.078125 -68.410156 L -3.199219 -67.949219 L -6.320312 -67.507812 C -10.394531 -67.09375 -12.269531 -65.714844 -12.097656 -63.355469 L -12.007812 -62.730469 C -11.703125 -60.546875 -10.703125 -59.097656 -8.65625 -58.113281 C -8.300781 -57.84375 -7.339844 -57.820312 -5.9375 -58.019531 C -4.691406 -58.195312 -3.730469 -58.167969 -2.796875 -58.300781 C -2.664062 -57.367188 -3.089844 -55.875 -3.71875 -53.558594 C -4.503906 -51.222656 -5.222656 -48.414062 -5.917969 -45.453125 C -6.4375 -43.472656 -6.753906 -41.203125 -6.914062 -38.953125 C -7.1875 -36.367188 -7.167969 -33.984375 -6.972656 -31.46875 C -6.917969 -26.542969 -6.4375 -22 -5.53125 -17.832031 C -4.761719 -13.488281 -3.742188 -10.765625 -2.472656 -9.671875 C -0.1875 -6.972656 2.820312 -5.964844 6.382812 -6.625 L 7.632812 -6.800781 C 11.644531 -7.683594 16.082031 -10.058594 20.679688 -13.566406 C 23.847656 -15.921875 27.28125 -18.632812 31.277344 -21.898438 C 35.136719 -24.988281 41.230469 -30.296875 49.554688 -37.832031 C 55.066406 -42.742188 60.242188 -46.652344 64.882812 -49.851562 C 69.523438 -53.046875 72.710938 -55.246094 74.5625 -56.78125 C 75.011719 -57.003906 75.121094 -57.335938 75.078125 -57.648438 L 75.054688 -57.804688 C 74.855469 -58.09375 74.367188 -58.183594 73.722656 -58.253906 C 71.046875 -58.035156 66.789062 -56.640625 60.8125 -53.890625 C 54.839844 -51.140625 46.832031 -45.878906 36.945312 -38.125 C 32.507812 -34.636719 28.757812 -31.882812 25.589844 -29.527344 C 22.421875 -27.175781 19.675781 -25.195312 17.648438 -23.796875 C 12.5625 -20.378906 9.574219 -19.003906 8.550781 -19.496094 C 7.527344 -19.988281 6.59375 -20.96875 5.75 -22.441406 C 5.148438 -23.3125 4.84375 -25.496094 4.828125 -28.992188 C 4.65625 -32.46875 4.933594 -36.164062 5.496094 -40.0625 C 5.679688 -42.15625 6.019531 -44.269531 6.355469 -46.386719 C 6.71875 -48.347656 7.253906 -50.171875 7.816406 -51.839844 C 9.050781 -55.515625 9.921875 -58.339844 10.597656 -60.34375 C 13.335938 -61.207031 16.078125 -62.070312 19.15625 -62.820312 C 21.917969 -63.527344 24.660156 -64.390625 27.246094 -65.234375 C 31.527344 -66.472656 35.023438 -67.601562 37.566406 -68.753906 C 39.976562 -69.726562 41.269531 -70.707031 41.160156 -71.484375 C 41.339844 -72.464844 39.671875 -73.027344 36.507812 -72.898438 C 33.1875 -72.75 29.734375 -72.421875 26.144531 -71.917969 C 23.941406 -71.765625 21.445312 -71.414062 18.949219 -71.0625 L 13.023438 -70.230469 C 12.914062 -71.011719 13.671875 -72.390625 15.480469 -74.234375 C 17.289062 -76.078125 19.945312 -78.679688 23.628906 -81.902344 C 25.902344 -83.8125 28.382812 -86.546875 31.398438 -89.996094 C 34.433594 -93.285156 37.113281 -96.84375 39.792969 -100.402344 C 41.132812 -102.179688 42.453125 -104.117188 43.613281 -106.03125 C 44.800781 -107.785156 45.828125 -109.523438 46.542969 -111.214844 Z M 35.578125 -119.054688 C 36.671875 -120.324219 37.632812 -121.414062 38.613281 -122.347656 C 39.308594 -123.078125 39.886719 -123.480469 40.355469 -123.546875 L 40.511719 -123.566406 C 40.511719 -123.566406 40.6875 -123.433594 40.6875 -123.433594 L 40.710938 -123.277344 C 40.734375 -123.121094 40.910156 -122.988281 40.910156 -122.988281 C 41.085938 -121.738281 40.28125 -119.558594 38.667969 -116.308594 C 36.8125 -112.546875 34.21875 -108.367188 30.933594 -103.449219 C 28.03125 -99.222656 25.195312 -95.644531 22.15625 -92.351562 C 19.96875 -89.816406 18.386719 -88.640625 17.761719 -88.554688 C 17.449219 -88.507812 17.425781 -88.664062 17.382812 -88.976562 C 17.316406 -89.445312 18.144531 -91.46875 20.179688 -95.097656 C 22.238281 -98.566406 24.429688 -102.214844 26.886719 -106.222656 C 28.449219 -108.667969 30.171875 -111.136719 31.734375 -113.582031 C 33.320312 -115.875 34.507812 -117.632812 35.578125 -119.054688 Z M 35.578125 -119.054688 "/></g></g></g><g fill="#20243b" fill-opacity="1"><g transform="translate(284.622744, 143.408645)"><g><path d="M 27.179688 -55.519531 C 29.105469 -58.8125 29.355469 -61.554688 27.753906 -63.871094 C 26.199219 -65.882812 23.507812 -66.933594 20.03125 -66.761719 L 18.941406 -66.609375 L 17.378906 -66.390625 C 16.464844 -66.101562 15.550781 -65.8125 14.640625 -65.527344 C 10.113281 -63.777344 5.742188 -60.933594 1.855469 -56.886719 C -2.183594 -52.820312 -5.222656 -48.414062 -7.304688 -43.988281 C -8.554688 -41.585938 -9.339844 -39.246094 -9.65625 -36.976562 C -10.015625 -35.015625 -10.109375 -33.414062 -9.890625 -31.851562 L -9.738281 -30.761719 C -9.050781 -28.152344 -7.765625 -25.789062 -5.585938 -23.867188 C -3.695312 -21.75 -1.25 -20.183594 1.734375 -19.332031 C 4.917969 -18.1875 9.414062 -17.867188 15.074219 -18.347656 L 16.945312 -18.609375 C 21.9375 -19.3125 27.441406 -20.882812 33.128906 -23.429688 C 36.117188 -24.804688 39.394531 -26.382812 42.761719 -28.445312 C 45.972656 -30.488281 49.34375 -32.550781 52.511719 -34.90625 C 58.308594 -38.90625 63.285156 -43.105469 67.460938 -47.351562 C 71.65625 -51.441406 73.644531 -54.265625 73.558594 -56.003906 L 73.515625 -56.316406 C 73.472656 -56.625 73.25 -57.074219 73.207031 -57.382812 C 73.007812 -57.675781 72.808594 -57.964844 72.808594 -57.964844 C 72.496094 -57.921875 70.132812 -56.632812 65.714844 -54.101562 C 61.144531 -51.550781 55.859375 -48.421875 49.878906 -44.558594 C 37.5 -36.453125 27.710938 -31.417969 20.3125 -29.738281 C 12.933594 -27.90625 6.742188 -27.832031 1.867188 -29.691406 C -0.179688 -30.675781 -1.335938 -32.101562 -1.753906 -33.953125 C -2.308594 -35.625 -1.992188 -37.894531 -0.804688 -40.765625 C -0.355469 -42.101562 0.445312 -43.167969 1.605469 -43.96875 C 2.632812 -44.589844 4.460938 -45.164062 7.089844 -45.695312 C 11.726562 -46.664062 15.984375 -48.058594 19.863281 -49.878906 C 23.585938 -51.675781 26.039062 -53.453125 27.179688 -55.519531 Z M 12.527344 -56.800781 C 14.132812 -57.820312 15.46875 -58.484375 16.695312 -58.816406 C 17.632812 -58.949219 18.234375 -59.191406 18.859375 -59.28125 L 19.324219 -59.347656 C 19.816406 -59.257812 20.148438 -59.144531 20.195312 -58.832031 C 20.238281 -58.519531 20.125 -58.1875 19.878906 -57.675781 C 19.097656 -56.449219 18.425781 -55.5625 17.558594 -54.960938 C 14.945312 -53.164062 12.71875 -52.054688 11.179688 -51.679688 C 9.796875 -51.324219 8.863281 -51.191406 8.238281 -51.105469 L 7.769531 -51.039062 C 7.300781 -50.972656 7.125 -51.109375 7.078125 -51.417969 C 7.035156 -51.730469 7.304688 -52.085938 7.996094 -52.820312 C 9.089844 -54.089844 10.652344 -55.421875 12.527344 -56.800781 Z M 12.527344 -56.800781 "/></g></g></g><g fill="#20243b" fill-opacity="0.302"><g transform="translate(116.00053, 301.613645)"><g><path d="M -1.691406 -23.332031 C 0.644531 -21.800781 2.417969 -21.140625 3.671875 -21.082031 C 4.230469 -21.039062 5.035156 -21.179688 6.378906 -21.410156 C 7.988281 -21.691406 10.265625 -22.085938 13.171875 -22.863281 C 16.367188 -23.554688 20.410156 -24.945312 25.566406 -27.082031 C 30.746094 -29.085938 35.988281 -31.511719 41.476562 -34.121094 C 46.71875 -36.546875 51.808594 -39.085938 56.871094 -41.757812 C 61.6875 -44.25 65.703125 -46.601562 68.664062 -48.636719 C 70.160156 -49.585938 71.382812 -50.488281 72.339844 -51.34375 C 73.320312 -52.066406 73.765625 -52.695312 73.695312 -53.097656 C 73.554688 -53.902344 70.714844 -53.550781 65.222656 -51.769531 C 59.726562 -49.988281 50.261719 -46.414062 36.910156 -41.339844 C 30.4375 -38.839844 24.585938 -36.722656 19.117188 -34.808594 C 13.511719 -32.871094 10.09375 -31.863281 8.753906 -31.632812 C 4.730469 -30.933594 2.308594 -31.34375 1.359375 -32.839844 C 0.277344 -34.308594 0.00390625 -38.265625 0.277344 -44.667969 C 0.304688 -47.714844 0.398438 -50.355469 0.566406 -52.59375 C 0.59375 -54.808594 0.679688 -55.929688 0.65625 -56.0625 C 0.632812 -56.195312 0.472656 -56.308594 0.160156 -56.53125 C -0.132812 -56.617188 -0.558594 -56.679688 -0.871094 -56.902344 L -1.140625 -56.855469 C -1.921875 -56.582031 -2.675781 -55.347656 -3.644531 -52.96875 C -4.679688 -50.164062 -5.53125 -47.117188 -6.339844 -43.800781 C -6.773438 -41.515625 -7.09375 -39.386719 -7.285156 -37.28125 C -7.605469 -35.152344 -7.59375 -33.496094 -7.363281 -32.15625 L -7.222656 -31.351562 C -6.851562 -29.207031 -6.441406 -27.621094 -5.875 -26.75 C -5.285156 -25.746094 -3.847656 -24.613281 -1.691406 -23.332031 Z M -0.0078125 -65.480469 C 0.351562 -64.988281 0.714844 -64.5 1.296875 -64.324219 C 1.769531 -63.992188 2.195312 -63.925781 2.460938 -63.972656 C 3.265625 -64.113281 4.398438 -65.550781 6.082031 -68.605469 C 7.628906 -71.636719 8.464844 -73.992188 8.585938 -75.671875 C 8.628906 -76.230469 8.671875 -76.789062 8.578125 -77.328125 C 8.273438 -79.070312 7.238281 -80.273438 5.441406 -81.066406 C 4.410156 -81.441406 3.558594 -81.570312 2.890625 -81.453125 C 1.683594 -81.246094 0.726562 -80.386719 0.105469 -79.175781 C -0.757812 -77.785156 -1.167969 -75.363281 -1.148438 -72.050781 C -1.269531 -70.371094 -1.171875 -69.007812 -0.988281 -67.933594 C -0.800781 -66.863281 -0.503906 -65.945312 -0.0078125 -65.480469 Z M -0.0078125 -65.480469 "/></g></g></g><g fill="#20243b" fill-opacity="0.302"><g transform="translate(192.97933, 288.285896)"><g><path d="M 37.164062 -97.335938 C 39.8125 -102.765625 40.5 -107.582031 39.21875 -111.78125 C 37.988281 -115.710938 35.894531 -117.421875 33.214844 -116.957031 L 32.945312 -116.910156 C 31.871094 -116.726562 30.84375 -116.273438 29.730469 -115.527344 C 28.484375 -114.757812 27.28125 -113.71875 26.125 -112.414062 C 24.945312 -111.246094 23.570312 -109.625 22.105469 -107.714844 C 20.664062 -105.667969 19.242188 -103.488281 17.738281 -101.015625 C 14.679688 -96.34375 11.847656 -91.15625 8.972656 -85.410156 C 5.964844 -79.636719 3.605469 -74.117188 1.871094 -68.984375 C 1.125 -66.917969 0.488281 -65.011719 -0.0859375 -63.53125 L -1.804688 -59.089844 L -4.621094 -58.601562 L -7.304688 -58.136719 C -10.8125 -57.667969 -12.394531 -56.429688 -12.179688 -54.394531 L -12.085938 -53.855469 C -11.761719 -51.980469 -10.859375 -50.753906 -9.0625 -49.960938 C -8.75 -49.738281 -7.921875 -49.742188 -6.714844 -49.953125 C -5.640625 -50.136719 -4.8125 -50.144531 -4.007812 -50.28125 C -3.871094 -49.476562 -4.195312 -48.175781 -4.675781 -46.160156 C -5.289062 -44.121094 -5.835938 -41.675781 -6.355469 -39.101562 C -6.746094 -37.375 -6.957031 -35.402344 -7.035156 -33.457031 C -7.199219 -31.21875 -7.121094 -29.160156 -6.882812 -26.988281 C -6.699219 -22.738281 -6.160156 -18.828125 -5.265625 -15.25 C -4.480469 -11.519531 -3.527344 -9.199219 -2.402344 -8.289062 C -0.351562 -6.019531 2.273438 -5.226562 5.332031 -5.898438 L 6.40625 -6.082031 C 9.847656 -6.953125 13.617188 -9.125 17.488281 -12.285156 C 20.160156 -14.40625 23.054688 -16.839844 26.417969 -19.769531 C 29.667969 -22.542969 34.785156 -27.296875 41.769531 -34.03125 C 46.394531 -38.425781 50.757812 -41.945312 54.679688 -44.832031 C 58.601562 -47.722656 61.296875 -49.707031 62.855469 -51.082031 C 63.234375 -51.285156 63.320312 -51.578125 63.273438 -51.847656 L 63.25 -51.980469 C 63.070312 -52.226562 62.644531 -52.289062 62.085938 -52.332031 C 59.78125 -52.070312 56.140625 -50.75 51.054688 -48.210938 C 45.96875 -45.671875 39.195312 -40.910156 30.871094 -33.941406 C 27.128906 -30.808594 23.96875 -28.324219 21.296875 -26.203125 C 18.625 -24.085938 16.308594 -22.300781 14.59375 -21.039062 C 10.292969 -17.945312 7.75 -16.675781 6.851562 -17.074219 C 5.953125 -17.46875 5.121094 -18.292969 4.351562 -19.542969 C 3.8125 -20.277344 3.484375 -22.15625 3.378906 -25.175781 C 3.136719 -28.171875 3.269531 -31.371094 3.652344 -34.753906 C 3.753906 -36.566406 3.988281 -38.40625 4.222656 -40.242188 C 4.480469 -41.941406 4.894531 -43.535156 5.335938 -44.992188 C 6.296875 -48.199219 6.976562 -50.664062 7.503906 -52.414062 C 9.847656 -53.234375 12.191406 -54.054688 14.828125 -54.785156 C 17.195312 -55.472656 19.539062 -56.292969 21.75 -57.089844 C 25.414062 -58.277344 28.40625 -59.347656 30.570312 -60.414062 C 32.621094 -61.320312 33.714844 -62.199219 33.597656 -62.871094 C 33.726562 -63.722656 32.269531 -64.160156 29.539062 -63.964844 C 26.675781 -63.746094 23.703125 -63.367188 20.617188 -62.835938 C 18.71875 -62.644531 16.570312 -62.273438 14.425781 -61.902344 L 9.328125 -61.019531 C 9.210938 -61.6875 9.832031 -62.902344 11.34375 -64.542969 C 12.855469 -66.1875 15.078125 -68.507812 18.171875 -71.390625 C 20.082031 -73.101562 22.148438 -75.53125 24.660156 -78.59375 C 27.191406 -81.515625 29.410156 -84.664062 31.628906 -87.8125 C 32.738281 -89.382812 33.824219 -91.09375 34.773438 -92.777344 C 35.75 -94.328125 36.589844 -95.855469 37.164062 -97.335938 Z M 27.476562 -103.808594 C 28.386719 -104.933594 29.1875 -105.898438 30.011719 -106.734375 C 30.585938 -107.386719 31.078125 -107.746094 31.480469 -107.816406 L 31.613281 -107.839844 C 31.613281 -107.839844 31.773438 -107.730469 31.773438 -107.730469 L 31.792969 -107.59375 C 31.816406 -107.460938 31.976562 -107.351562 31.976562 -107.351562 C 32.160156 -106.277344 31.523438 -104.371094 30.222656 -101.519531 C 28.722656 -98.222656 26.59375 -94.539062 23.894531 -90.203125 C 21.5 -86.472656 19.148438 -83.300781 16.613281 -80.375 C 14.792969 -78.128906 13.457031 -77.066406 12.921875 -76.972656 C 12.652344 -76.925781 12.628906 -77.0625 12.582031 -77.332031 C 12.511719 -77.734375 13.171875 -79.503906 14.832031 -82.691406 C 16.511719 -85.746094 18.304688 -88.957031 20.320312 -92.484375 C 21.605469 -94.640625 23.023438 -96.820312 24.308594 -98.976562 C 25.613281 -101 26.589844 -102.550781 27.476562 -103.808594 Z M 27.476562 -103.808594 "/></g></g></g><g fill="#20243b" fill-opacity="0.502"><g transform="translate(119.26927, 298.476579)"><g><path d="M -1.691406 -23.332031 C 0.644531 -21.800781 2.417969 -21.140625 3.671875 -21.082031 C 4.230469 -21.039062 5.035156 -21.179688 6.378906 -21.410156 C 7.988281 -21.691406 10.265625 -22.085938 13.171875 -22.863281 C 16.367188 -23.554688 20.410156 -24.945312 25.566406 -27.082031 C 30.746094 -29.085938 35.988281 -31.511719 41.476562 -34.121094 C 46.71875 -36.546875 51.808594 -39.085938 56.871094 -41.757812 C 61.6875 -44.25 65.703125 -46.601562 68.664062 -48.636719 C 70.160156 -49.585938 71.382812 -50.488281 72.339844 -51.34375 C 73.320312 -52.066406 73.765625 -52.695312 73.695312 -53.097656 C 73.554688 -53.902344 70.714844 -53.550781 65.222656 -51.769531 C 59.726562 -49.988281 50.261719 -46.414062 36.910156 -41.339844 C 30.4375 -38.839844 24.585938 -36.722656 19.117188 -34.808594 C 13.511719 -32.871094 10.09375 -31.863281 8.753906 -31.632812 C 4.730469 -30.933594 2.308594 -31.34375 1.359375 -32.839844 C 0.277344 -34.308594 0.00390625 -38.265625 0.277344 -44.667969 C 0.304688 -47.714844 0.398438 -50.355469 0.566406 -52.59375 C 0.59375 -54.808594 0.679688 -55.929688 0.65625 -56.0625 C 0.632812 -56.195312 0.472656 -56.308594 0.160156 -56.53125 C -0.132812 -56.617188 -0.558594 -56.679688 -0.871094 -56.902344 L -1.140625 -56.855469 C -1.921875 -56.582031 -2.675781 -55.347656 -3.644531 -52.96875 C -4.679688 -50.164062 -5.53125 -47.117188 -6.339844 -43.800781 C -6.773438 -41.515625 -7.09375 -39.386719 -7.285156 -37.28125 C -7.605469 -35.152344 -7.59375 -33.496094 -7.363281 -32.15625 L -7.222656 -31.351562 C -6.851562 -29.207031 -6.441406 -27.621094 -5.875 -26.75 C -5.285156 -25.746094 -3.847656 -24.613281 -1.691406 -23.332031 Z M -0.0078125 -65.480469 C 0.351562 -64.988281 0.714844 -64.5 1.296875 -64.324219 C 1.769531 -63.992188 2.195312 -63.925781 2.460938 -63.972656 C 3.265625 -64.113281 4.398438 -65.550781 6.082031 -68.605469 C 7.628906 -71.636719 8.464844 -73.992188 8.585938 -75.671875 C 8.628906 -76.230469 8.671875 -76.789062 8.578125 -77.328125 C 8.273438 -79.070312 7.238281 -80.273438 5.441406 -81.066406 C 4.410156 -81.441406 3.558594 -81.570312 2.890625 -81.453125 C 1.683594 -81.246094 0.726562 -80.386719 0.105469 -79.175781 C -0.757812 -77.785156 -1.167969 -75.363281 -1.148438 -72.050781 C -1.269531 -70.371094 -1.171875 -69.007812 -0.988281 -67.933594 C -0.800781 -66.863281 -0.503906 -65.945312 -0.0078125 -65.480469 Z M -0.0078125 -65.480469 "/></g></g></g><g fill="#20243b" fill-opacity="0.502"><g transform="translate(196.248069, 285.14883)"><g><path d="M 37.164062 -97.335938 C 39.8125 -102.765625 40.5 -107.582031 39.21875 -111.78125 C 37.988281 -115.710938 35.894531 -117.421875 33.214844 -116.957031 L 32.945312 -116.910156 C 31.871094 -116.726562 30.84375 -116.273438 29.730469 -115.527344 C 28.484375 -114.757812 27.28125 -113.71875 26.125 -112.414062 C 24.945312 -111.246094 23.570312 -109.625 22.105469 -107.714844 C 20.664062 -105.667969 19.242188 -103.488281 17.738281 -101.015625 C 14.679688 -96.34375 11.847656 -91.15625 8.972656 -85.410156 C 5.964844 -79.636719 3.605469 -74.117188 1.871094 -68.984375 C 1.125 -66.917969 0.488281 -65.011719 -0.0859375 -63.53125 L -1.804688 -59.089844 L -4.621094 -58.601562 L -7.304688 -58.136719 C -10.8125 -57.667969 -12.394531 -56.429688 -12.179688 -54.394531 L -12.085938 -53.855469 C -11.761719 -51.980469 -10.859375 -50.753906 -9.0625 -49.960938 C -8.75 -49.738281 -7.921875 -49.742188 -6.714844 -49.953125 C -5.640625 -50.136719 -4.8125 -50.144531 -4.007812 -50.28125 C -3.871094 -49.476562 -4.195312 -48.175781 -4.675781 -46.160156 C -5.289062 -44.121094 -5.835938 -41.675781 -6.355469 -39.101562 C -6.746094 -37.375 -6.957031 -35.402344 -7.035156 -33.457031 C -7.199219 -31.21875 -7.121094 -29.160156 -6.882812 -26.988281 C -6.699219 -22.738281 -6.160156 -18.828125 -5.265625 -15.25 C -4.480469 -11.519531 -3.527344 -9.199219 -2.402344 -8.289062 C -0.351562 -6.019531 2.273438 -5.226562 5.332031 -5.898438 L 6.40625 -6.082031 C 9.847656 -6.953125 13.617188 -9.125 17.488281 -12.285156 C 20.160156 -14.40625 23.054688 -16.839844 26.417969 -19.769531 C 29.667969 -22.542969 34.785156 -27.296875 41.769531 -34.03125 C 46.394531 -38.425781 50.757812 -41.945312 54.679688 -44.832031 C 58.601562 -47.722656 61.296875 -49.707031 62.855469 -51.082031 C 63.234375 -51.285156 63.320312 -51.578125 63.273438 -51.847656 L 63.25 -51.980469 C 63.070312 -52.226562 62.644531 -52.289062 62.085938 -52.332031 C 59.78125 -52.070312 56.140625 -50.75 51.054688 -48.210938 C 45.96875 -45.671875 39.195312 -40.910156 30.871094 -33.941406 C 27.128906 -30.808594 23.96875 -28.324219 21.296875 -26.203125 C 18.625 -24.085938 16.308594 -22.300781 14.59375 -21.039062 C 10.292969 -17.945312 7.75 -16.675781 6.851562 -17.074219 C 5.953125 -17.46875 5.121094 -18.292969 4.351562 -19.542969 C 3.8125 -20.277344 3.484375 -22.15625 3.378906 -25.175781 C 3.136719 -28.171875 3.269531 -31.371094 3.652344 -34.753906 C 3.753906 -36.566406 3.988281 -38.40625 4.222656 -40.242188 C 4.480469 -41.941406 4.894531 -43.535156 5.335938 -44.992188 C 6.296875 -48.199219 6.976562 -50.664062 7.503906 -52.414062 C 9.847656 -53.234375 12.191406 -54.054688 14.828125 -54.785156 C 17.195312 -55.472656 19.539062 -56.292969 21.75 -57.089844 C 25.414062 -58.277344 28.40625 -59.347656 30.570312 -60.414062 C 32.621094 -61.320312 33.714844 -62.199219 33.597656 -62.871094 C 33.726562 -63.722656 32.269531 -64.160156 29.539062 -63.964844 C 26.675781 -63.746094 23.703125 -63.367188 20.617188 -62.835938 C 18.71875 -62.644531 16.570312 -62.273438 14.425781 -61.902344 L 9.328125 -61.019531 C 9.210938 -61.6875 9.832031 -62.902344 11.34375 -64.542969 C 12.855469 -66.1875 15.078125 -68.507812 18.171875 -71.390625 C 20.082031 -73.101562 22.148438 -75.53125 24.660156 -78.59375 C 27.191406 -81.515625 29.410156 -84.664062 31.628906 -87.8125 C 32.738281 -89.382812 33.824219 -91.09375 34.773438 -92.777344 C 35.75 -94.328125 36.589844 -95.855469 37.164062 -97.335938 Z M 27.476562 -103.808594 C 28.386719 -104.933594 29.1875 -105.898438 30.011719 -106.734375 C 30.585938 -107.386719 31.078125 -107.746094 31.480469 -107.816406 L 31.613281 -107.839844 C 31.613281 -107.839844 31.773438 -107.730469 31.773438 -107.730469 L 31.792969 -107.59375 C 31.816406 -107.460938 31.976562 -107.351562 31.976562 -107.351562 C 32.160156 -106.277344 31.523438 -104.371094 30.222656 -101.519531 C 28.722656 -98.222656 26.59375 -94.539062 23.894531 -90.203125 C 21.5 -86.472656 19.148438 -83.300781 16.613281 -80.375 C 14.792969 -78.128906 13.457031 -77.066406 12.921875 -76.972656 C 12.652344 -76.925781 12.628906 -77.0625 12.582031 -77.332031 C 12.511719 -77.734375 13.171875 -79.503906 14.832031 -82.691406 C 16.511719 -85.746094 18.304688 -88.957031 20.320312 -92.484375 C 21.605469 -94.640625 23.023438 -96.820312 24.308594 -98.976562 C 25.613281 -101 26.589844 -102.550781 27.476562 -103.808594 Z M 27.476562 -103.808594 "/></g></g></g><g fill="#20243b" fill-opacity="1"><g transform="translate(122.537996, 295.3395)"><g><path d="M -1.691406 -23.332031 C 0.644531 -21.800781 2.417969 -21.140625 3.671875 -21.082031 C 4.230469 -21.039062 5.035156 -21.179688 6.378906 -21.410156 C 7.988281 -21.691406 10.265625 -22.085938 13.171875 -22.863281 C 16.367188 -23.554688 20.410156 -24.945312 25.566406 -27.082031 C 30.746094 -29.085938 35.988281 -31.511719 41.476562 -34.121094 C 46.71875 -36.546875 51.808594 -39.085938 56.871094 -41.757812 C 61.6875 -44.25 65.703125 -46.601562 68.664062 -48.636719 C 70.160156 -49.585938 71.382812 -50.488281 72.339844 -51.34375 C 73.320312 -52.066406 73.765625 -52.695312 73.695312 -53.097656 C 73.554688 -53.902344 70.714844 -53.550781 65.222656 -51.769531 C 59.726562 -49.988281 50.261719 -46.414062 36.910156 -41.339844 C 30.4375 -38.839844 24.585938 -36.722656 19.117188 -34.808594 C 13.511719 -32.871094 10.09375 -31.863281 8.753906 -31.632812 C 4.730469 -30.933594 2.308594 -31.34375 1.359375 -32.839844 C 0.277344 -34.308594 0.00390625 -38.265625 0.277344 -44.667969 C 0.304688 -47.714844 0.398438 -50.355469 0.566406 -52.59375 C 0.59375 -54.808594 0.679688 -55.929688 0.65625 -56.0625 C 0.632812 -56.195312 0.472656 -56.308594 0.160156 -56.53125 C -0.132812 -56.617188 -0.558594 -56.679688 -0.871094 -56.902344 L -1.140625 -56.855469 C -1.921875 -56.582031 -2.675781 -55.347656 -3.644531 -52.96875 C -4.679688 -50.164062 -5.53125 -47.117188 -6.339844 -43.800781 C -6.773438 -41.515625 -7.09375 -39.386719 -7.285156 -37.28125 C -7.605469 -35.152344 -7.59375 -33.496094 -7.363281 -32.15625 L -7.222656 -31.351562 C -6.851562 -29.207031 -6.441406 -27.621094 -5.875 -26.75 C -5.285156 -25.746094 -3.847656 -24.613281 -1.691406 -23.332031 Z M -0.0078125 -65.480469 C 0.351562 -64.988281 0.714844 -64.5 1.296875 -64.324219 C 1.769531 -63.992188 2.195312 -63.925781 2.460938 -63.972656 C 3.265625 -64.113281 4.398438 -65.550781 6.082031 -68.605469 C 7.628906 -71.636719 8.464844 -73.992188 8.585938 -75.671875 C 8.628906 -76.230469 8.671875 -76.789062 8.578125 -77.328125 C 8.273438 -79.070312 7.238281 -80.273438 5.441406 -81.066406 C 4.410156 -81.441406 3.558594 -81.570312 2.890625 -81.453125 C 1.683594 -81.246094 0.726562 -80.386719 0.105469 -79.175781 C -0.757812 -77.785156 -1.167969 -75.363281 -1.148438 -72.050781 C -1.269531 -70.371094 -1.171875 -69.007812 -0.988281 -67.933594 C -0.800781 -66.863281 -0.503906 -65.945312 -0.0078125 -65.480469 Z M -0.0078125 -65.480469 "/></g></g></g><g fill="#20243b" fill-opacity="1"><g transform="translate(199.516795, 282.011752)"><g><path d="M 37.164062 -97.335938 C 39.8125 -102.765625 40.5 -107.582031 39.21875 -111.78125 C 37.988281 -115.710938 35.894531 -117.421875 33.214844 -116.957031 L 32.945312 -116.910156 C 31.871094 -116.726562 30.84375 -116.273438 29.730469 -115.527344 C 28.484375 -114.757812 27.28125 -113.71875 26.125 -112.414062 C 24.945312 -111.246094 23.570312 -109.625 22.105469 -107.714844 C 20.664062 -105.667969 19.242188 -103.488281 17.738281 -101.015625 C 14.679688 -96.34375 11.847656 -91.15625 8.972656 -85.410156 C 5.964844 -79.636719 3.605469 -74.117188 1.871094 -68.984375 C 1.125 -66.917969 0.488281 -65.011719 -0.0859375 -63.53125 L -1.804688 -59.089844 L -4.621094 -58.601562 L -7.304688 -58.136719 C -10.8125 -57.667969 -12.394531 -56.429688 -12.179688 -54.394531 L -12.085938 -53.855469 C -11.761719 -51.980469 -10.859375 -50.753906 -9.0625 -49.960938 C -8.75 -49.738281 -7.921875 -49.742188 -6.714844 -49.953125 C -5.640625 -50.136719 -4.8125 -50.144531 -4.007812 -50.28125 C -3.871094 -49.476562 -4.195312 -48.175781 -4.675781 -46.160156 C -5.289062 -44.121094 -5.835938 -41.675781 -6.355469 -39.101562 C -6.746094 -37.375 -6.957031 -35.402344 -7.035156 -33.457031 C -7.199219 -31.21875 -7.121094 -29.160156 -6.882812 -26.988281 C -6.699219 -22.738281 -6.160156 -18.828125 -5.265625 -15.25 C -4.480469 -11.519531 -3.527344 -9.199219 -2.402344 -8.289062 C -0.351562 -6.019531 2.273438 -5.226562 5.332031 -5.898438 L 6.40625 -6.082031 C 9.847656 -6.953125 13.617188 -9.125 17.488281 -12.285156 C 20.160156 -14.40625 23.054688 -16.839844 26.417969 -19.769531 C 29.667969 -22.542969 34.785156 -27.296875 41.769531 -34.03125 C 46.394531 -38.425781 50.757812 -41.945312 54.679688 -44.832031 C 58.601562 -47.722656 61.296875 -49.707031 62.855469 -51.082031 C 63.234375 -51.285156 63.320312 -51.578125 63.273438 -51.847656 L 63.25 -51.980469 C 63.070312 -52.226562 62.644531 -52.289062 62.085938 -52.332031 C 59.78125 -52.070312 56.140625 -50.75 51.054688 -48.210938 C 45.96875 -45.671875 39.195312 -40.910156 30.871094 -33.941406 C 27.128906 -30.808594 23.96875 -28.324219 21.296875 -26.203125 C 18.625 -24.085938 16.308594 -22.300781 14.59375 -21.039062 C 10.292969 -17.945312 7.75 -16.675781 6.851562 -17.074219 C 5.953125 -17.46875 5.121094 -18.292969 4.351562 -19.542969 C 3.8125 -20.277344 3.484375 -22.15625 3.378906 -25.175781 C 3.136719 -28.171875 3.269531 -31.371094 3.652344 -34.753906 C 3.753906 -36.566406 3.988281 -38.40625 4.222656 -40.242188 C 4.480469 -41.941406 4.894531 -43.535156 5.335938 -44.992188 C 6.296875 -48.199219 6.976562 -50.664062 7.503906 -52.414062 C 9.847656 -53.234375 12.191406 -54.054688 14.828125 -54.785156 C 17.195312 -55.472656 19.539062 -56.292969 21.75 -57.089844 C 25.414062 -58.277344 28.40625 -59.347656 30.570312 -60.414062 C 32.621094 -61.320312 33.714844 -62.199219 33.597656 -62.871094 C 33.726562 -63.722656 32.269531 -64.160156 29.539062 -63.964844 C 26.675781 -63.746094 23.703125 -63.367188 20.617188 -62.835938 C 18.71875 -62.644531 16.570312 -62.273438 14.425781 -61.902344 L 9.328125 -61.019531 C 9.210938 -61.6875 9.832031 -62.902344 11.34375 -64.542969 C 12.855469 -66.1875 15.078125 -68.507812 18.171875 -71.390625 C 20.082031 -73.101562 22.148438 -75.53125 24.660156 -78.59375 C 27.191406 -81.515625 29.410156 -84.664062 31.628906 -87.8125 C 32.738281 -89.382812 33.824219 -91.09375 34.773438 -92.777344 C 35.75 -94.328125 36.589844 -95.855469 37.164062 -97.335938 Z M 27.476562 -103.808594 C 28.386719 -104.933594 29.1875 -105.898438 30.011719 -106.734375 C 30.585938 -107.386719 31.078125 -107.746094 31.480469 -107.816406 L 31.613281 -107.839844 C 31.613281 -107.839844 31.773438 -107.730469 31.773438 -107.730469 L 31.792969 -107.59375 C 31.816406 -107.460938 31.976562 -107.351562 31.976562 -107.351562 C 32.160156 -106.277344 31.523438 -104.371094 30.222656 -101.519531 C 28.722656 -98.222656 26.59375 -94.539062 23.894531 -90.203125 C 21.5 -86.472656 19.148438 -83.300781 16.613281 -80.375 C 14.792969 -78.128906 13.457031 -77.066406 12.921875 -76.972656 C 12.652344 -76.925781 12.628906 -77.0625 12.582031 -77.332031 C 12.511719 -77.734375 13.171875 -79.503906 14.832031 -82.691406 C 16.511719 -85.746094 18.304688 -88.957031 20.320312 -92.484375 C 21.605469 -94.640625 23.023438 -96.820312 24.308594 -98.976562 C 25.613281 -101 26.589844 -102.550781 27.476562 -103.808594 Z M 27.476562 -103.808594 "/></g></g></g></svg>